<svg width="195" height="195" viewBox="0 0 195 195" fill="none" xmlns="http://www.w3.org/2000/svg">
<path d="M97.5 0.416687C43.91 0.416687 0.416626 43.91 0.416626 97.5C0.416626 151.09 43.91 194.583 97.5 194.583H146.042V175.167H97.5C55.3658 175.167 19.8333 139.634 19.8333 97.5C19.8333 55.3659 55.3658 19.8334 97.5 19.8334C139.634 19.8334 175.167 55.3659 175.167 97.5V111.383C175.167 119.053 168.274 126.625 160.604 126.625C152.935 126.625 146.042 119.053 146.042 111.383V97.5C146.042 70.705 124.295 48.9584 97.5 48.9584C70.705 48.9584 48.9583 70.705 48.9583 97.5C48.9583 124.295 70.705 146.042 97.5 146.042C110.897 146.042 123.13 140.605 131.867 131.77C138.178 140.411 149.051 146.042 160.604 146.042C179.73 146.042 194.583 130.508 194.583 111.383V97.5C194.583 43.91 151.09 0.416687 97.5 0.416687ZM97.5 126.625C81.3841 126.625 68.375 113.616 68.375 97.5C68.375 81.3842 81.3841 68.375 97.5 68.375C113.616 68.375 126.625 81.3842 126.625 97.5C126.625 113.616 113.616 126.625 97.5 126.625Z" fill="#241E31"/>
</svg>
