<svg width="282" height="282" viewBox="0 0 282 282" fill="none" xmlns="http://www.w3.org/2000/svg">
<rect width="282" height="282" rx="18" fill="#241E31"/>
<path d="M141.417 39C83.2267 39 36 84.5467 36 140.667C36 196.787 83.2267 242.333 141.417 242.333H194.125V222H141.417C95.6658 222 57.0833 184.79 57.0833 140.667C57.0833 96.5433 95.6658 59.3333 141.417 59.3333C187.168 59.3333 225.75 96.5433 225.75 140.667V155.205C225.75 163.237 218.265 171.167 209.938 171.167C201.61 171.167 194.125 163.237 194.125 155.205V140.667C194.125 112.607 170.512 89.8333 141.417 89.8333C112.322 89.8333 88.7083 112.607 88.7083 140.667C88.7083 168.727 112.322 191.5 141.417 191.5C155.964 191.5 169.247 185.807 178.734 176.555C185.586 185.603 197.393 191.5 209.938 191.5C230.705 191.5 246.833 175.233 246.833 155.205V140.667C246.833 84.5467 199.607 39 141.417 39ZM141.417 171.167C123.918 171.167 109.792 157.543 109.792 140.667C109.792 123.79 123.918 110.167 141.417 110.167C158.916 110.167 173.042 123.79 173.042 140.667C173.042 157.543 158.916 171.167 141.417 171.167Z" fill="#f0e7e3"/>
</svg>
