<svg width="270" height="270" viewBox="0 0 270 270" fill="none" xmlns="http://www.w3.org/2000/svg">
<circle cx="135" cy="135" r="135" fill="#E51336"/>
<path d="M134.755 214.555C129.155 214.555 124.655 210.055 124.655 204.455V144.255C124.655 138.655 129.155 134.155 134.755 134.155C140.355 134.155 144.855 138.655 144.855 144.255V204.455C144.855 210.055 140.355 214.555 134.755 214.555ZM155.855 118.155C152.955 118.155 150.055 116.955 148.155 114.555C144.555 110.255 145.155 103.955 149.455 100.355L201.055 57.3552C205.355 53.7552 211.655 54.3552 215.255 58.6552C218.855 62.9553 218.255 69.2553 213.955 72.8553L162.355 115.855C160.355 117.355 158.055 118.155 155.855 118.155ZM114.755 118.155C112.455 118.155 110.155 117.355 108.355 115.855L56.6552 72.8553C52.3552 69.3553 51.7552 62.9553 55.3552 58.6552C58.9552 54.3552 65.2552 53.7552 69.5552 57.3552L121.255 100.355C125.555 103.955 126.155 110.255 122.555 114.555C120.555 116.955 117.655 118.155 114.755 118.155Z" fill="white"/>
</svg>
